<?xml version="1.0" standalone="no"?>
<!DOCTYPE svg PUBLIC "-//W3C//DTD SVG 20010904//EN"
 "http://www.w3.org/TR/2001/REC-SVG-20010904/DTD/svg10.dtd">
<svg version="1.0" xmlns="http://www.w3.org/2000/svg"
 width="362.000000pt" height="362.000000pt" viewBox="0 0 362.000000 362.000000"
 preserveAspectRatio="xMidYMid meet">
<metadata>
Created by potrace 1.14, written by Peter Selinger 2001-2017
</metadata>
<g transform="translate(0.000000,362.000000) scale(0.100000,-0.100000)"
fill="#000000" stroke="none">
<path d="M1726 3608 c-16 -6 -126 -67 -245 -135 -119 -69 -364 -211 -546 -316
-181 -105 -395 -228 -475 -274 -161 -92 -222 -147 -241 -216 -8 -29 -11 -289
-11 -863 0 -819 0 -821 22 -871 12 -28 38 -66 58 -85 20 -19 224 -142 452
-273 228 -131 527 -303 663 -383 310 -179 337 -192 407 -192 63 0 111 20 253
104 51 29 108 63 127 74 19 11 132 75 250 144 118 68 323 187 455 263 396 228
422 244 453 279 66 75 63 32 60 966 l-3 845 -26 40 c-15 22 -37 50 -50 62 -13
12 -193 119 -399 238 -206 119 -404 234 -440 255 -248 145 -531 306 -574 326
-55 26 -137 31 -190 12z"/>
</g>
</svg>
