<?xml version="1.0" standalone="no"?>
<!DOCTYPE svg PUBLIC "-//W3C//DTD SVG 20010904//EN"
 "http://www.w3.org/TR/2001/REC-SVG-20010904/DTD/svg10.dtd">
<svg version="1.0" xmlns="http://www.w3.org/2000/svg"
 width="560.000000pt" height="560.000000pt" viewBox="0 0 560.000000 560.000000"
 preserveAspectRatio="xMidYMid meet">
<metadata>
Created by potrace 1.14, written by Peter Selinger 2001-2017
</metadata>
<g transform="translate(0.000000,560.000000) scale(0.100000,-0.100000)"
fill="#000000" stroke="none">
<path d="M2750 5546 c-25 -7 -90 -38 -145 -70 -55 -32 -190 -110 -300 -173
-110 -64 -227 -132 -260 -151 -33 -20 -89 -52 -125 -72 -36 -20 -177 -102
-315 -182 -137 -80 -324 -188 -415 -240 -436 -251 -678 -392 -712 -415 -21
-14 -47 -45 -60 -72 l-23 -46 0 -1325 0 -1325 22 -41 c28 -52 60 -76 246 -183
83 -48 211 -122 282 -163 72 -41 207 -119 300 -173 94 -54 283 -163 420 -243
344 -199 433 -251 485 -280 25 -14 131 -75 235 -136 351 -202 345 -200 405
-204 64 -5 69 -2 403 191 116 68 232 135 257 149 70 39 206 118 580 335 314
182 444 257 907 524 186 107 218 131 246 183 l22 41 0 1325 0 1325 -22 46
c-27 54 -40 64 -213 164 -74 43 -225 130 -335 193 -110 63 -355 205 -545 315
-451 262 -522 303 -600 347 -36 20 -126 72 -200 115 -74 43 -192 111 -263 152
-168 98 -203 109 -277 89z m181 -1761 c68 -60 150 -135 183 -166 34 -31 109
-98 167 -150 210 -187 295 -263 355 -318 33 -31 98 -90 144 -131 47 -41 105
-93 130 -116 25 -22 62 -56 83 -74 20 -18 37 -37 37 -42 0 -4 -65 -8 -145 -8
l-145 0 0 -435 0 -435 -339 0 -338 0 -5 273 c-6 287 -10 317 -60 389 -62 89
-285 98 -367 14 -59 -60 -64 -92 -69 -398 l-4 -278 -354 0 -354 0 0 435 0 435
-145 0 c-144 0 -164 5 -126 32 10 7 60 51 112 98 51 47 118 108 149 135 89 82
229 206 289 259 31 26 81 71 111 100 30 28 96 87 145 131 50 44 95 85 101 90
6 6 49 44 95 85 46 41 112 101 147 133 35 32 67 57 72 55 5 -2 64 -52 131
-113z"/>
</g>
</svg>
